<?xml version="1.0" encoding="utf-8"?>
<!-- Generator: Adobe Illustrator 19.1.0, SVG Export Plug-In . SVG Version: 6.00 Build 0)  -->
<svg version="1.1" id="Ebene_1" xmlns="http://www.w3.org/2000/svg" xmlns:xlink="http://www.w3.org/1999/xlink" x="0px" y="0px"
	 viewBox="0 0 553.763 155.914" enable-background="new 0 0 553.763 155.914" xml:space="preserve">
<g>
	<path opacity="0.6" fill="#729DA0" d="M276.327,39.782c0,10.675-3.357,19-10.07,24.974c-6.713,5.976-14.701,8.962-23.966,8.962
		c-9.198,0-17.152-2.971-23.864-8.911c-6.715-5.942-10.07-14.284-10.07-25.025c0-10.605,3.355-18.913,10.07-24.921
		c6.712-6.008,14.701-8.474,23.966-8.474c9.263,0,16.396,1.123,21.398,5.588c5,4.465,8.34,9.314,10.019,13.408
		C275.487,29.48,276.327,34.279,276.327,39.782z M225.475,39.782c0,5.17,1.643,9.232,4.934,12.184
		c3.289,2.956,7.216,4.431,11.782,4.431c4.431,0,8.291-1.443,11.581-4.329c3.287-2.886,4.934-6.982,4.934-12.287
		c0-5.235-1.647-9.314-4.934-12.234c-3.291-2.92-7.218-4.382-11.782-4.382c-4.431,0-8.292,1.428-11.581,4.281
		C227.118,30.302,225.475,34.413,225.475,39.782z"/>
	<path opacity="0.85" fill="#0B676E" d="M266.862,32.231c6.243,0,11.379,1.902,15.407,5.704c4.028,3.803,6.042,8.563,6.042,14.284
		c0,5.584-1.982,11.069-5.942,15.242c-3.962,4.172-8.727,6.258-14.299,6.258h-15.709H242.09V56.402l24.166,0.2
		c1.14,0,2.08-0.425,2.82-1.275c0.738-0.849,1.108-1.754,1.108-2.911c0-2.513-1.579-3.773-4.733-3.773
		c-6.511,0-11.882-2.084-16.11-6.258c-4.23-4.172-6.345-9.387-6.345-15.647c0-5.584,2.097-10.845,6.294-14.648
		c4.194-3.803,9.145-5.704,14.853-5.704h40.784l-17.22,17.428h-24.166c-1.076,0-1.965,0.221-2.668,0.662
		c-0.705,0.443-1.125,1.466-1.259,2.553c0,1.972,0.705,3.33,2.114,4.079C263.136,31.859,264.848,32.231,266.862,32.231z"/>
	<path opacity="0.6" fill="#729DA0" d="M292.739,23.816l18.124-17.455v67.804h-18.124V23.816z M353.762,74.064l-45.918-46.616
		l3.02-21.088l23.563,24.435V6.387h19.335V74.064z"/>
</g>
<g>
	<path d="M62.627,114.025c0,2.653-0.42,5.088-1.26,7.304c-0.841,2.217-2.027,4.124-3.56,5.723c-1.532,1.599-3.374,2.838-5.525,3.72
		c-2.151,0.881-4.528,1.322-7.131,1.322c-2.604,0-4.977-0.441-7.119-1.322c-2.142-0.882-3.979-2.121-5.512-3.72
		c-1.532-1.599-2.719-3.506-3.56-5.723c-0.84-2.216-1.26-4.65-1.26-7.304c0-2.653,0.42-5.088,1.26-7.304
		c0.841-2.216,2.027-4.129,3.56-5.735c1.533-1.607,3.37-2.855,5.512-3.745c2.142-0.889,4.515-1.334,7.119-1.334
		c2.603,0,4.981,0.445,7.131,1.334c2.151,0.89,3.992,2.138,5.525,3.745c1.532,1.606,2.719,3.519,3.56,5.735
		C62.207,108.938,62.627,111.372,62.627,114.025z M57.708,114.025c0-2.175-0.297-4.128-0.89-5.858
		c-0.593-1.731-1.433-3.193-2.521-4.388c-1.088-1.194-2.406-2.113-3.955-2.756c-1.549-0.642-3.28-0.965-5.191-0.965
		c-1.895,0-3.618,0.322-5.166,0.965c-1.549,0.642-2.872,1.562-3.967,2.756c-1.096,1.195-1.94,2.657-2.534,4.388
		c-0.593,1.731-0.89,3.683-0.89,5.858c0,2.175,0.297,4.124,0.89,5.846c0.593,1.721,1.438,3.18,2.534,4.375
		c1.096,1.195,2.418,2.109,3.967,2.744c1.549,0.635,3.271,0.952,5.166,0.952c1.911,0,3.642-0.317,5.191-0.952
		c1.549-0.634,2.867-1.549,3.955-2.744c1.088-1.195,1.928-2.653,2.521-4.375C57.411,118.149,57.708,116.201,57.708,114.025z"/>
	<path d="M68.485,140.202v-33.518h2.62c0.626,0,1.022,0.305,1.187,0.915l0.371,2.966c1.071-1.302,2.295-2.349,3.671-3.14
		c1.376-0.791,2.962-1.187,4.759-1.187c1.433,0,2.735,0.277,3.905,0.828c1.17,0.552,2.166,1.368,2.991,2.447
		c0.824,1.08,1.459,2.419,1.903,4.016c0.445,1.599,0.668,3.436,0.668,5.513c0,1.846-0.247,3.563-0.742,5.154
		c-0.494,1.59-1.203,2.966-2.126,4.128c-0.923,1.161-2.056,2.076-3.399,2.743s-2.855,1.001-4.536,1.001
		c-1.549,0-2.872-0.255-3.967-0.766c-1.096-0.511-2.064-1.236-2.905-2.175v11.074H68.485z M79.633,109.798
		c-1.433,0-2.691,0.331-3.769,0.989c-1.08,0.659-2.073,1.59-2.979,2.794v12.111c0.807,1.088,1.693,1.854,2.658,2.3
		c0.964,0.445,2.039,0.667,3.225,0.667c2.324,0,4.112-0.832,5.364-2.497c1.252-1.664,1.879-4.037,1.879-7.118
		c0-1.632-0.144-3.032-0.433-4.202c-0.288-1.171-0.704-2.13-1.248-2.88c-0.544-0.75-1.211-1.298-2.002-1.644
		C81.536,109.972,80.638,109.798,79.633,109.798z"/>
	<path d="M105.685,106.289c1.499,0,2.883,0.251,4.152,0.754c1.269,0.502,2.365,1.227,3.288,2.175
		c0.923,0.947,1.644,2.118,2.163,3.509c0.519,1.393,0.778,2.978,0.778,4.758c0,0.693-0.074,1.154-0.222,1.384
		c-0.149,0.231-0.429,0.346-0.841,0.346h-16.66c0.033,1.582,0.247,2.958,0.642,4.128c0.396,1.171,0.94,2.147,1.632,2.929
		c0.692,0.783,1.516,1.369,2.472,1.755c0.955,0.388,2.027,0.581,3.213,0.581c1.104,0,2.056-0.127,2.855-0.383
		c0.799-0.255,1.487-0.531,2.064-0.827c0.577-0.297,1.059-0.573,1.446-0.828s0.721-0.383,1.001-0.383c0.362,0,0.642,0.14,0.84,0.421
		l1.236,1.606c-0.544,0.659-1.195,1.232-1.953,1.719c-0.758,0.486-1.57,0.886-2.435,1.199c-0.865,0.313-1.759,0.548-2.682,0.705
		c-0.923,0.156-1.838,0.234-2.744,0.234c-1.73,0-3.325-0.292-4.783-0.877c-1.459-0.584-2.719-1.442-3.782-2.571
		c-1.063-1.128-1.891-2.524-2.484-4.189c-0.593-1.665-0.89-3.576-0.89-5.735c0-1.746,0.268-3.378,0.804-4.895
		c0.535-1.515,1.306-2.83,2.311-3.942c1.005-1.112,2.232-1.986,3.683-2.62C102.241,106.606,103.872,106.289,105.685,106.289z
		 M105.784,109.526c-2.126,0-3.799,0.615-5.018,1.842c-1.219,1.227-1.978,2.929-2.274,5.104h13.62c0-1.022-0.14-1.957-0.42-2.806
		c-0.28-0.849-0.692-1.582-1.236-2.2c-0.544-0.617-1.207-1.096-1.99-1.433C107.683,109.696,106.789,109.526,105.784,109.526z"/>
	<path d="M121.677,131.724v-25.04h2.62c0.626,0,1.022,0.305,1.187,0.915l0.346,2.718c1.088-1.202,2.302-2.175,3.646-2.916
		c1.343-0.742,2.896-1.112,4.659-1.112c1.368,0,2.575,0.227,3.621,0.68c1.046,0.453,1.92,1.096,2.62,1.927
		c0.7,0.833,1.232,1.834,1.595,3.003c0.362,1.171,0.544,2.464,0.544,3.881v15.944h-4.4V115.78c0-1.895-0.433-3.366-1.297-4.412
		c-0.865-1.046-2.188-1.57-3.968-1.57c-1.302,0-2.517,0.314-3.646,0.94c-1.129,0.627-2.171,1.475-3.127,2.546v18.44H121.677z"/>
	<path d="M177.54,101.839c-0.148,0.248-0.305,0.433-0.47,0.556c-0.165,0.123-0.379,0.186-0.642,0.186
		c-0.28,0-0.606-0.14-0.976-0.421c-0.371-0.279-0.841-0.589-1.409-0.927c-0.569-0.338-1.253-0.646-2.052-0.927
		c-0.799-0.28-1.767-0.421-2.905-0.421c-1.071,0-2.018,0.145-2.842,0.433c-0.824,0.289-1.512,0.68-2.064,1.174
		c-0.552,0.494-0.968,1.075-1.248,1.743c-0.28,0.667-0.421,1.388-0.421,2.162c0,0.989,0.243,1.809,0.729,2.459
		c0.486,0.652,1.129,1.208,1.928,1.668c0.799,0.462,1.706,0.862,2.719,1.2c1.013,0.338,2.051,0.688,3.114,1.05
		c1.063,0.363,2.101,0.771,3.114,1.224c1.014,0.453,1.92,1.026,2.719,1.718c0.799,0.693,1.441,1.541,1.928,2.547
		c0.486,1.005,0.729,2.241,0.729,3.707c0,1.55-0.264,3.003-0.791,4.363c-0.528,1.36-1.298,2.543-2.311,3.548
		c-1.013,1.005-2.258,1.797-3.732,2.373c-1.475,0.577-3.152,0.865-5.03,0.865c-2.291,0-4.379-0.416-6.266-1.249
		c-1.887-0.832-3.497-1.956-4.832-3.374l1.384-2.274c0.132-0.181,0.292-0.334,0.482-0.458c0.189-0.123,0.399-0.186,0.63-0.186
		c0.346,0,0.742,0.186,1.187,0.556c0.445,0.371,1.001,0.779,1.669,1.224c0.667,0.446,1.474,0.853,2.422,1.224
		c0.947,0.371,2.105,0.556,3.473,0.556c1.137,0,2.151-0.156,3.041-0.47c0.89-0.313,1.644-0.754,2.262-1.322
		c0.618-0.568,1.091-1.248,1.421-2.039c0.329-0.791,0.494-1.673,0.494-2.645c0-1.071-0.244-1.949-0.729-2.633
		c-0.486-0.683-1.125-1.256-1.916-1.718c-0.791-0.461-1.693-0.853-2.707-1.174c-1.013-0.321-2.051-0.651-3.114-0.989
		c-1.063-0.337-2.101-0.729-3.114-1.174c-1.013-0.446-1.916-1.022-2.707-1.731s-1.43-1.594-1.915-2.657
		c-0.486-1.063-0.729-2.377-0.729-3.943c0-1.252,0.243-2.463,0.729-3.633c0.486-1.17,1.19-2.209,2.113-3.115
		s2.064-1.631,3.424-2.175c1.36-0.544,2.921-0.815,4.684-0.815c1.977,0,3.782,0.313,5.413,0.939
		c1.631,0.627,3.056,1.533,4.276,2.719L177.54,101.839z"/>
	<path d="M192.495,132.119c-1.977,0-3.497-0.552-4.56-1.656c-1.063-1.104-1.594-2.694-1.594-4.771v-15.325h-3.016
		c-0.264,0-0.486-0.078-0.667-0.235c-0.182-0.157-0.272-0.399-0.272-0.73v-1.755l4.103-0.519l1.013-7.737
		c0.033-0.248,0.14-0.449,0.321-0.606c0.182-0.156,0.412-0.235,0.692-0.235h2.225v8.627h7.168v3.189h-7.168v15.028
		c0,1.055,0.255,1.837,0.766,2.348c0.511,0.512,1.17,0.767,1.978,0.767c0.461,0,0.861-0.062,1.199-0.186
		c0.337-0.123,0.63-0.26,0.877-0.408c0.247-0.149,0.457-0.285,0.63-0.409c0.173-0.123,0.325-0.185,0.457-0.185
		c0.231,0,0.436,0.14,0.618,0.42l1.285,2.101c-0.758,0.709-1.673,1.265-2.743,1.668
		C194.736,131.917,193.632,132.119,192.495,132.119z"/>
	<path d="M203.346,131.724v-25.04h2.522c0.478,0,0.807,0.09,0.988,0.272c0.182,0.181,0.305,0.494,0.371,0.939l0.297,3.906
		c0.856-1.746,1.916-3.11,3.176-4.091c1.261-0.98,2.74-1.472,4.437-1.472c0.692,0,1.318,0.079,1.878,0.235
		c0.56,0.157,1.079,0.375,1.557,0.655l-0.569,3.288c-0.115,0.412-0.37,0.617-0.766,0.617c-0.231,0-0.585-0.078-1.063-0.234
		c-0.478-0.157-1.146-0.235-2.002-0.235c-1.533,0-2.814,0.445-3.844,1.334c-1.03,0.89-1.891,2.184-2.583,3.881v15.944H203.346z"/>
	<path d="M240.721,131.724h-1.953c-0.428,0-0.775-0.066-1.038-0.198c-0.264-0.132-0.437-0.412-0.519-0.84l-0.494-2.324
		c-0.66,0.593-1.302,1.124-1.928,1.594c-0.626,0.47-1.285,0.865-1.978,1.187c-0.692,0.321-1.43,0.564-2.212,0.729
		c-0.783,0.165-1.653,0.248-2.608,0.248c-0.973,0-1.883-0.137-2.731-0.409c-0.849-0.273-1.586-0.681-2.212-1.227
		c-0.626-0.546-1.124-1.237-1.495-2.071c-0.371-0.836-0.556-1.823-0.556-2.964c0-0.992,0.272-1.947,0.816-2.864
		c0.544-0.918,1.421-1.732,2.633-2.444c1.211-0.711,2.797-1.293,4.758-1.748c1.961-0.455,4.359-0.682,7.193-0.682v-1.965
		c0-1.956-0.416-3.436-1.248-4.44c-0.832-1.003-2.064-1.505-3.695-1.505c-1.071,0-1.974,0.136-2.707,0.409
		c-0.733,0.271-1.368,0.577-1.903,0.915c-0.536,0.338-0.997,0.642-1.384,0.914c-0.387,0.272-0.771,0.408-1.149,0.408
		c-0.297,0-0.556-0.078-0.778-0.235c-0.222-0.156-0.4-0.35-0.532-0.581l-0.791-1.408c1.384-1.335,2.875-2.332,4.474-2.991
		c1.598-0.658,3.37-0.989,5.314-0.989c1.401,0,2.645,0.231,3.733,0.693c1.088,0.461,2.002,1.104,2.743,1.928
		c0.742,0.824,1.302,1.821,1.681,2.99c0.379,1.171,0.569,2.456,0.569,3.856V131.724z M229.301,129.03
		c0.774,0,1.483-0.078,2.126-0.235c0.643-0.157,1.248-0.379,1.817-0.668c0.569-0.288,1.112-0.639,1.632-1.051
		c0.519-0.411,1.025-0.881,1.52-1.408v-5.167c-2.027,0-3.749,0.129-5.166,0.386c-1.417,0.257-2.57,0.592-3.46,1.006
		c-0.89,0.415-1.537,0.903-1.94,1.467c-0.404,0.564-0.606,1.194-0.606,1.889c0,0.663,0.107,1.236,0.321,1.716
		c0.214,0.481,0.503,0.875,0.865,1.181c0.363,0.306,0.791,0.531,1.285,0.671C228.189,128.959,228.724,129.03,229.301,129.03z"/>
	<path d="M254.982,132.119c-1.977,0-3.497-0.552-4.56-1.656c-1.063-1.104-1.594-2.694-1.594-4.771v-15.325h-3.016
		c-0.264,0-0.486-0.078-0.667-0.235c-0.182-0.157-0.272-0.399-0.272-0.73v-1.755l4.103-0.519l1.013-7.737
		c0.033-0.248,0.14-0.449,0.321-0.606c0.182-0.156,0.412-0.235,0.692-0.235h2.225v8.627h7.168v3.189h-7.168v15.028
		c0,1.055,0.255,1.837,0.766,2.348c0.511,0.512,1.17,0.767,1.978,0.767c0.461,0,0.861-0.062,1.199-0.186
		c0.337-0.123,0.63-0.26,0.877-0.408c0.247-0.149,0.457-0.285,0.63-0.409s0.325-0.185,0.457-0.185c0.231,0,0.436,0.14,0.618,0.42
		l1.285,2.101c-0.758,0.709-1.673,1.265-2.744,1.668C257.224,131.917,256.12,132.119,254.982,132.119z"/>
	<path d="M275.746,106.289c1.499,0,2.883,0.251,4.152,0.754c1.269,0.502,2.365,1.227,3.288,2.175
		c0.923,0.947,1.644,2.118,2.163,3.509c0.519,1.393,0.779,2.978,0.779,4.758c0,0.693-0.074,1.154-0.222,1.384
		c-0.149,0.231-0.429,0.346-0.841,0.346h-16.66c0.033,1.582,0.247,2.958,0.642,4.128c0.396,1.171,0.94,2.147,1.632,2.929
		c0.692,0.783,1.516,1.369,2.472,1.755c0.955,0.388,2.027,0.581,3.213,0.581c1.104,0,2.056-0.127,2.855-0.383
		c0.799-0.255,1.487-0.531,2.064-0.827c0.577-0.297,1.059-0.573,1.446-0.828s0.721-0.383,1.001-0.383c0.362,0,0.642,0.14,0.84,0.421
		l1.236,1.606c-0.544,0.659-1.195,1.232-1.953,1.719c-0.758,0.486-1.57,0.886-2.435,1.199c-0.865,0.313-1.759,0.548-2.682,0.705
		c-0.923,0.156-1.838,0.234-2.744,0.234c-1.73,0-3.325-0.292-4.783-0.877c-1.459-0.584-2.719-1.442-3.782-2.571
		c-1.063-1.128-1.891-2.524-2.484-4.189c-0.593-1.665-0.89-3.576-0.89-5.735c0-1.746,0.268-3.378,0.804-4.895
		c0.535-1.515,1.306-2.83,2.311-3.942c1.005-1.112,2.232-1.986,3.683-2.62C272.301,106.606,273.933,106.289,275.746,106.289z
		 M275.845,109.526c-2.126,0-3.799,0.615-5.018,1.842c-1.219,1.227-1.978,2.929-2.274,5.104h13.62c0-1.022-0.14-1.957-0.42-2.806
		c-0.28-0.849-0.692-1.582-1.236-2.2c-0.544-0.617-1.207-1.096-1.99-1.433C277.744,109.696,276.85,109.526,275.845,109.526z"/>
	<path d="M300.167,106.264c1.088,0,2.105,0.12,3.053,0.358c0.947,0.24,1.808,0.59,2.583,1.051h6.798v1.631
		c0,0.544-0.346,0.889-1.038,1.038l-2.842,0.396c0.56,1.071,0.84,2.266,0.84,3.584c0,1.22-0.235,2.328-0.705,3.325
		c-0.469,0.997-1.121,1.85-1.952,2.559c-0.832,0.708-1.821,1.252-2.966,1.631c-1.146,0.38-2.402,0.569-3.769,0.569
		c-1.17,0-2.274-0.14-3.312-0.421c-0.528,0.341-0.927,0.707-1.199,1.098c-0.272,0.393-0.408,0.776-0.408,1.15
		c0,0.614,0.239,1.078,0.717,1.393c0.478,0.316,1.112,0.541,1.903,0.678c0.791,0.136,1.689,0.204,2.694,0.204
		c1.005,0,2.03,0,3.077,0c1.046,0,2.072,0.092,3.077,0.276c1.005,0.183,1.904,0.484,2.695,0.901
		c0.791,0.417,1.425,0.992,1.903,1.727c0.478,0.733,0.717,1.684,0.717,2.852c0,1.084-0.268,2.135-0.804,3.153
		c-0.536,1.017-1.306,1.922-2.311,2.715c-1.005,0.792-2.233,1.426-3.683,1.902c-1.451,0.474-3.09,0.713-4.919,0.713
		c-1.829,0-3.432-0.182-4.807-0.545c-1.376-0.363-2.517-0.85-3.424-1.459c-0.907-0.611-1.586-1.316-2.039-2.116
		c-0.454-0.8-0.68-1.637-0.68-2.511c0-1.238,0.391-2.29,1.174-3.155c0.782-0.866,1.858-1.555,3.226-2.067
		c-0.709-0.329-1.273-0.769-1.693-1.32c-0.42-0.551-0.63-1.288-0.63-2.209c0-0.361,0.066-0.736,0.198-1.122
		c0.132-0.387,0.334-0.77,0.606-1.148c0.272-0.379,0.605-0.741,1.001-1.086s0.857-0.65,1.384-0.914
		c-1.236-0.692-2.204-1.61-2.904-2.756c-0.701-1.146-1.051-2.484-1.051-4.017c0-1.219,0.234-2.327,0.704-3.324
		s1.125-1.846,1.965-2.547c0.841-0.7,1.842-1.239,3.003-1.619C297.51,106.453,298.782,106.264,300.167,106.264z M307.978,132.994
		c0-0.639-0.173-1.151-0.519-1.537c-0.346-0.386-0.816-0.685-1.409-0.895s-1.278-0.366-2.052-0.466
		c-0.775-0.101-1.59-0.151-2.447-0.151c-0.857,0-1.731,0-2.62,0s-1.738-0.111-2.546-0.334c-0.94,0.446-1.702,0.991-2.287,1.634
		c-0.585,0.643-0.877,1.411-0.877,2.302c0,0.561,0.144,1.085,0.433,1.572c0.288,0.487,0.729,0.908,1.323,1.263
		s1.338,0.636,2.237,0.842c0.898,0.206,1.957,0.309,3.176,0.309c1.187,0,2.25-0.109,3.189-0.327c0.939-0.219,1.734-0.53,2.385-0.933
		c0.651-0.404,1.149-0.883,1.496-1.437C307.804,134.28,307.978,133.666,307.978,132.994z M300.167,119.488
		c0.89,0,1.676-0.123,2.361-0.37c0.684-0.248,1.256-0.593,1.718-1.039c0.461-0.445,0.807-0.976,1.038-1.594s0.346-1.298,0.346-2.039
		c0-1.533-0.466-2.752-1.397-3.659c-0.931-0.906-2.286-1.359-4.066-1.359c-1.764,0-3.111,0.453-4.041,1.359
		c-0.931,0.907-1.397,2.126-1.397,3.659c0,0.741,0.119,1.42,0.358,2.039c0.239,0.618,0.589,1.149,1.051,1.594
		c0.461,0.446,1.03,0.791,1.706,1.039C298.519,119.365,299.293,119.488,300.167,119.488z"/>
	<path d="M324.341,139.114c-0.149,0.33-0.334,0.593-0.557,0.791c-0.221,0.198-0.564,0.297-1.025,0.297h-3.263l4.573-9.937
		l-10.333-23.581h3.807c0.379,0,0.676,0.095,0.889,0.284c0.215,0.189,0.371,0.399,0.47,0.63l6.7,15.77
		c0.149,0.362,0.275,0.725,0.383,1.087c0.108,0.363,0.202,0.733,0.284,1.112c0.115-0.379,0.23-0.749,0.347-1.112
		c0.115-0.362,0.247-0.733,0.396-1.112l6.501-15.745c0.098-0.264,0.267-0.482,0.507-0.655c0.238-0.173,0.498-0.259,0.778-0.259
		h3.509L324.341,139.114z"/>
	<path d="M355.213,96.834c0.132,0.058,0.272,0.186,0.421,0.383l22.642,30.305c-0.049-0.495-0.074-0.972-0.074-1.434v-29.34h2.224
		v34.977h-1.211c-0.38,0-0.684-0.164-0.914-0.495l-22.741-30.354c0.049,0.494,0.074,0.964,0.074,1.409v29.44h-2.2V96.747h1.236
		C354.9,96.747,355.081,96.776,355.213,96.834z"/>
	<path d="M398.89,106.733c1.384,0,2.666,0.239,3.844,0.717c1.178,0.478,2.2,1.174,3.065,2.089c0.865,0.915,1.541,2.039,2.028,3.374
		c0.486,1.335,0.729,2.867,0.729,4.598c0,0.363-0.054,0.61-0.161,0.742c-0.107,0.132-0.276,0.198-0.506,0.198h-17.749v0.47
		c0,1.846,0.214,3.469,0.642,4.869c0.429,1.401,1.039,2.575,1.83,3.522c0.791,0.948,1.746,1.661,2.867,2.138
		c1.121,0.478,2.373,0.717,3.757,0.717c1.236,0,2.307-0.136,3.213-0.408s1.668-0.577,2.287-0.915
		c0.617-0.338,1.108-0.642,1.471-0.914c0.362-0.272,0.626-0.408,0.791-0.408c0.214,0,0.379,0.083,0.494,0.247l0.642,0.791
		c-0.396,0.494-0.918,0.955-1.569,1.384c-0.652,0.429-1.376,0.795-2.175,1.1c-0.799,0.305-1.656,0.548-2.571,0.729
		c-0.914,0.181-1.834,0.272-2.757,0.272c-1.68,0-3.213-0.292-4.598-0.877c-1.384-0.585-2.572-1.438-3.563-2.559
		c-0.991-1.121-1.758-2.492-2.299-4.116c-0.541-1.623-0.811-3.481-0.811-5.573c0-1.764,0.251-3.391,0.754-4.883
		c0.502-1.491,1.227-2.776,2.175-3.856c0.947-1.079,2.109-1.924,3.485-2.534C395.582,107.039,397.143,106.733,398.89,106.733z
		 M398.926,108.488c-1.267,0-2.403,0.198-3.406,0.593s-1.871,0.965-2.603,1.706c-0.733,0.742-1.325,1.631-1.777,2.67
		c-0.453,1.038-0.753,2.199-0.901,3.485h16.19c0-1.318-0.181-2.501-0.542-3.548c-0.363-1.046-0.873-1.932-1.531-2.657
		c-0.658-0.725-1.447-1.281-2.369-1.668C401.065,108.682,400.045,108.488,398.926,108.488z"/>
	<path d="M421.58,132.119c-1.665,0-2.958-0.461-3.881-1.384c-0.923-0.923-1.384-2.348-1.384-4.276v-16.808h-3.535
		c-0.181,0-0.33-0.05-0.445-0.149c-0.116-0.099-0.174-0.239-0.174-0.421v-0.915l4.203-0.296l0.587-8.801
		c0.016-0.148,0.077-0.279,0.183-0.396c0.106-0.115,0.249-0.173,0.428-0.173h1.101v9.393h7.737v1.756h-7.737v16.685
		c0,0.676,0.086,1.256,0.259,1.743c0.173,0.486,0.412,0.886,0.717,1.199s0.663,0.544,1.075,0.692
		c0.412,0.149,0.857,0.223,1.335,0.223c0.593,0,1.104-0.086,1.533-0.259c0.428-0.174,0.798-0.363,1.112-0.569
		c0.313-0.206,0.568-0.396,0.766-0.568c0.198-0.174,0.355-0.26,0.47-0.26c0.132,0,0.264,0.083,0.396,0.247l0.642,1.039
		c-0.627,0.692-1.421,1.248-2.385,1.668C423.62,131.909,422.618,132.119,421.58,132.119z"/>
	<path d="M429.045,107.129h1.804c0.231,0,0.421,0.061,0.569,0.186c0.148,0.123,0.247,0.259,0.297,0.408l6.205,19.404
		c0.115,0.379,0.205,0.741,0.272,1.087c0.065,0.346,0.131,0.693,0.198,1.038c0.082-0.345,0.173-0.692,0.271-1.038
		c0.099-0.346,0.214-0.708,0.346-1.087l6.6-19.578c0.115-0.362,0.346-0.543,0.692-0.543h0.965c0.362,0,0.601,0.181,0.717,0.543
		l6.501,19.578c0.247,0.741,0.445,1.459,0.593,2.15c0.066-0.346,0.136-0.696,0.21-1.051c0.074-0.354,0.177-0.72,0.309-1.099
		l6.229-19.404c0.132-0.396,0.412-0.593,0.84-0.593h1.731l-8.231,24.595h-1.73c-0.265,0-0.454-0.174-0.569-0.519l-6.748-19.973
		c-0.083-0.247-0.157-0.494-0.223-0.741c-0.066-0.248-0.123-0.495-0.173-0.742c-0.049,0.247-0.103,0.494-0.161,0.742
		c-0.059,0.247-0.128,0.494-0.21,0.741l-6.823,19.973c-0.098,0.345-0.296,0.519-0.593,0.519h-1.655L429.045,107.129z"/>
	<path d="M478.31,106.733c1.763,0,3.34,0.301,4.733,0.902c1.393,0.602,2.566,1.454,3.522,2.558c0.955,1.105,1.685,2.435,2.187,3.992
		c0.502,1.557,0.754,3.3,0.754,5.228s-0.252,3.667-0.754,5.216c-0.502,1.549-1.232,2.875-2.187,3.979
		c-0.956,1.104-2.13,1.952-3.522,2.546c-1.393,0.593-2.97,0.89-4.733,0.89c-1.764,0-3.341-0.297-4.734-0.89
		c-1.393-0.593-2.571-1.442-3.535-2.546c-0.964-1.104-1.697-2.431-2.2-3.979c-0.502-1.549-0.754-3.288-0.754-5.216
		s0.252-3.671,0.754-5.228c0.503-1.557,1.237-2.887,2.2-3.992c0.964-1.104,2.142-1.956,3.535-2.558S476.546,106.733,478.31,106.733z
		 M478.31,130.191c1.466,0,2.747-0.251,3.844-0.754c1.096-0.502,2.01-1.224,2.744-2.163c0.733-0.939,1.281-2.071,1.643-3.398
		c0.363-1.327,0.544-2.814,0.544-4.462c0-1.631-0.181-3.115-0.544-4.449c-0.362-1.335-0.911-2.476-1.643-3.424
		c-0.733-0.947-1.648-1.677-2.744-2.187c-1.096-0.511-2.378-0.766-3.844-0.766c-1.467,0-2.748,0.255-3.844,0.766
		c-1.096,0.511-2.011,1.24-2.744,2.187c-0.733,0.948-1.285,2.089-1.656,3.424c-0.37,1.334-0.556,2.818-0.556,4.449
		c0,1.648,0.186,3.135,0.556,4.462c0.371,1.327,0.923,2.459,1.656,3.398c0.733,0.94,1.648,1.661,2.744,2.163
		C475.562,129.94,476.843,130.191,478.31,130.191z"/>
	<path d="M495.685,131.724v-24.595h1.236c0.28,0,0.482,0.058,0.606,0.173c0.123,0.116,0.193,0.314,0.21,0.593l0.198,5.191
		c0.791-1.993,1.846-3.555,3.164-4.684c1.318-1.129,2.941-1.693,4.87-1.693c0.741,0,1.425,0.079,2.051,0.235
		c0.627,0.157,1.22,0.383,1.78,0.68l-0.321,1.632c-0.049,0.264-0.214,0.396-0.494,0.396c-0.099,0-0.24-0.033-0.421-0.099
		s-0.408-0.14-0.68-0.223c-0.272-0.082-0.605-0.156-1.001-0.222c-0.396-0.066-0.85-0.099-1.36-0.099
		c-1.862,0-3.391,0.577-4.585,1.731c-1.195,1.154-2.163,2.818-2.905,4.993v15.993H495.685z"/>
	<path d="M517.907,95.759v21.925h1.136c0.231,0,0.449-0.033,0.656-0.098c0.206-0.066,0.433-0.223,0.68-0.47l9.863-9.369
		c0.181-0.181,0.367-0.329,0.556-0.445c0.189-0.115,0.433-0.173,0.729-0.173h2.077l-10.852,10.307
		c-0.165,0.165-0.321,0.318-0.47,0.458c-0.149,0.14-0.313,0.259-0.494,0.358c0.263,0.132,0.486,0.288,0.667,0.47
		c0.182,0.181,0.371,0.379,0.569,0.593l11.395,12.408h-2.051c-0.231,0-0.437-0.046-0.618-0.136c-0.181-0.09-0.363-0.235-0.544-0.433
		l-10.332-11.073c-0.28-0.297-0.536-0.499-0.766-0.605c-0.231-0.108-0.593-0.161-1.087-0.161h-1.112v12.408h-2.349V95.759H517.907z"
		/>
</g>
</svg>
